<?xml version="1.0" encoding="utf-8"?><svg xmlns="http://www.w3.org/2000/svg" xmlns:xlink="http://www.w3.org/1999/xlink"><symbol viewBox="0 0 80 80" id="arrow-circle-left" xmlns="http://www.w3.org/2000/svg"><path d="M40 70C56.5685 70 70 56.5685 70 40C70 23.4315 56.5685 10 40 10C23.4315 10 10 23.4315 10 40C10 56.5685 23.4315 70 40 70Z" stroke-width="2" stroke-linecap="round" stroke-linejoin="round"/><path d="M27.5 40H52.5" stroke-width="2" stroke-linecap="round" stroke-linejoin="round"/><path d="M37.5 30L27.5 40L37.5 50" stroke-width="2" stroke-linecap="round" stroke-linejoin="round"/></symbol><symbol viewBox="0 0 80 80" id="arrow-circle-right" xmlns="http://www.w3.org/2000/svg"><path d="M40 70C56.5685 70 70 56.5685 70 40C70 23.4315 56.5685 10 40 10C23.4315 10 10 23.4315 10 40C10 56.5685 23.4315 70 40 70Z" stroke-width="2" stroke-linecap="round" stroke-linejoin="round"/><path d="M27.5 40H52.5" stroke-width="2" stroke-linecap="round" stroke-linejoin="round"/><path d="M42.5 30L52.5 40L42.5 50" stroke-width="2" stroke-linecap="round" stroke-linejoin="round"/></symbol><symbol viewBox="0 0 34 34" id="arrow-right" xmlns="http://www.w3.org/2000/svg"><g clip-path="url(#cclip0_1219_283)"><path d="M5.3125 17H28.6875" stroke-width="2" stroke-linecap="round" stroke-linejoin="round"/><path d="M19.125 7.4375L28.6875 17L19.125 26.5625" stroke-width="2" stroke-linecap="round" stroke-linejoin="round"/></g><defs><clipPath id="cclip0_1219_283"><rect width="34" height="34"/></clipPath></defs></symbol><symbol viewBox="0 0 48 48" id="facebook" xmlns="http://www.w3.org/2000/svg"><path d="M29.8727 25.5624L30.5566 21.2171H26.3437V18.3927C26.3437 17.2045 26.9319 16.0435 28.8126 16.0435H30.7549V12.3432C29.6238 12.1628 28.4809 12.0653 27.3354 12.0513C23.868 12.0513 21.6042 14.1357 21.6042 17.9038V21.2171H17.7607V25.5624H21.6042V36.0726H26.3437V25.5624H29.8727Z"/></symbol><symbol viewBox="0 0 48 48" id="instagram" xmlns="http://www.w3.org/2000/svg"><path d="M20.0054 24.0614C20.0054 21.8504 21.7968 20.0576 24.0072 20.0576C26.2176 20.0576 28.0099 21.8504 28.0099 24.0614C28.0099 26.2725 26.2176 28.0653 24.0072 28.0653C21.7968 28.0653 20.0054 26.2725 20.0054 24.0614ZM17.8416 24.0614C17.8416 27.4677 20.602 30.2288 24.0072 30.2288C27.4124 30.2288 30.1728 27.4677 30.1728 24.0614C30.1728 20.6552 27.4124 17.8941 24.0072 17.8941C20.602 17.8941 17.8416 20.6552 17.8416 24.0614ZM28.976 17.6496C28.9759 17.9346 29.0603 18.2133 29.2185 18.4504C29.3767 18.6875 29.6017 18.8723 29.8649 18.9815C30.1281 19.0907 30.4178 19.1194 30.6974 19.0639C30.9769 19.0084 31.2337 18.8712 31.4353 18.6697C31.6369 18.4682 31.7742 18.2115 31.8299 17.9319C31.8856 17.6523 31.8572 17.3625 31.7482 17.0991C31.6393 16.8357 31.4547 16.6106 31.2178 16.4521C30.9809 16.2936 30.7024 16.209 30.4174 16.2089C30.0355 16.2091 29.6686 16.3609 29.3984 16.631C29.1282 16.9011 28.9763 17.2675 28.976 17.6496ZM19.1563 33.8378C17.9856 33.7845 17.3494 33.5895 16.9265 33.4247C16.3659 33.2064 15.9659 32.9464 15.5454 32.5263C15.1248 32.1062 14.8645 31.7065 14.6473 31.1457C14.4824 30.7229 14.2874 30.0863 14.2342 28.9153C14.176 27.6493 14.1644 27.269 14.1644 24.0615C14.1644 20.8541 14.177 20.4749 14.2342 19.2078C14.2875 18.0368 14.484 17.4014 14.6473 16.9774C14.8655 16.4166 15.1254 16.0165 15.5454 15.5958C15.9654 15.1752 16.365 14.9148 16.9265 14.6975C17.3492 14.5326 17.9856 14.3375 19.1563 14.2843C20.4219 14.2261 20.8021 14.2144 24.0072 14.2144C27.2123 14.2144 27.5928 14.227 28.8596 14.2843C30.0302 14.3376 30.6654 14.5341 31.0893 14.6975C31.6499 14.9148 32.0499 15.1758 32.4705 15.5958C32.891 16.0159 33.1503 16.4166 33.3686 16.9774C33.5334 17.4001 33.7284 18.0368 33.7816 19.2078C33.8399 20.4749 33.8515 20.8541 33.8515 24.0615C33.8515 27.269 33.8399 27.6482 33.7816 28.9153C33.7283 30.0863 33.5324 30.7228 33.3686 31.1457C33.1503 31.7065 32.8904 32.1066 32.4705 32.5263C32.0505 32.946 31.6499 33.2064 31.0893 33.4247C30.6667 33.5896 30.0302 33.7846 28.8596 33.8378C27.5939 33.8961 27.2137 33.9077 24.0072 33.9077C20.8007 33.9077 20.4216 33.8961 19.1563 33.8378ZM19.0569 12.1235C17.7786 12.1817 16.9052 12.3845 16.1424 12.6814C15.3524 12.988 14.6837 13.3993 14.0154 14.0667C13.3471 14.7342 12.9369 15.4042 12.6304 16.1944C12.3336 16.9579 12.1309 17.8311 12.0727 19.1097C12.0135 20.3903 12 20.7997 12 24.0614C12 27.3232 12.0135 27.7326 12.0727 29.0132C12.1309 30.2919 12.3336 31.165 12.6304 31.9285C12.9369 32.7183 13.3472 33.389 14.0154 34.0561C14.6836 34.7233 15.3524 35.134 16.1424 35.4415C16.9066 35.7384 17.7786 35.9411 19.0569 35.9994C20.3378 36.0576 20.7464 36.0721 24.0072 36.0721C27.268 36.0721 27.6773 36.0586 28.9575 35.9994C30.2359 35.9411 31.1087 35.7384 31.872 35.4415C32.6615 35.134 33.3307 34.7236 33.999 34.0561C34.6673 33.3887 35.0766 32.7183 35.384 31.9285C35.6808 31.165 35.8844 30.2918 35.9417 29.0132C35.9999 27.7316 36.0134 27.3232 36.0134 24.0614C36.0134 20.7997 35.9999 20.3903 35.9417 19.1097C35.8835 17.831 35.6808 16.9574 35.384 16.1944C35.0766 15.4046 34.6662 14.7352 33.999 14.0667C33.3318 13.3983 32.6615 12.988 31.873 12.6814C31.1087 12.3845 30.2358 12.1808 28.9585 12.1235C27.6782 12.0653 27.2689 12.0508 24.0082 12.0508C20.7474 12.0508 20.3378 12.0643 19.0569 12.1235Z"/><path d="M20.0054 24.0614C20.0054 21.8504 21.7968 20.0576 24.0072 20.0576C26.2176 20.0576 28.0099 21.8504 28.0099 24.0614C28.0099 26.2725 26.2176 28.0653 24.0072 28.0653C21.7968 28.0653 20.0054 26.2725 20.0054 24.0614ZM17.8416 24.0614C17.8416 27.4677 20.602 30.2288 24.0072 30.2288C27.4124 30.2288 30.1728 27.4677 30.1728 24.0614C30.1728 20.6552 27.4124 17.8941 24.0072 17.8941C20.602 17.8941 17.8416 20.6552 17.8416 24.0614ZM28.976 17.6496C28.9759 17.9346 29.0603 18.2133 29.2185 18.4504C29.3767 18.6875 29.6017 18.8723 29.8649 18.9815C30.1281 19.0907 30.4178 19.1194 30.6974 19.0639C30.9769 19.0084 31.2337 18.8712 31.4353 18.6697C31.6369 18.4682 31.7742 18.2115 31.8299 17.9319C31.8856 17.6523 31.8572 17.3625 31.7482 17.0991C31.6393 16.8357 31.4547 16.6106 31.2178 16.4521C30.9809 16.2936 30.7024 16.209 30.4174 16.2089C30.0355 16.2091 29.6686 16.3609 29.3984 16.631C29.1282 16.9011 28.9763 17.2675 28.976 17.6496ZM19.1563 33.8378C17.9856 33.7845 17.3494 33.5895 16.9265 33.4247C16.3659 33.2064 15.9659 32.9464 15.5454 32.5263C15.1248 32.1062 14.8645 31.7065 14.6473 31.1457C14.4824 30.7229 14.2874 30.0863 14.2342 28.9153C14.176 27.6493 14.1644 27.269 14.1644 24.0615C14.1644 20.8541 14.177 20.4749 14.2342 19.2078C14.2875 18.0368 14.484 17.4014 14.6473 16.9774C14.8655 16.4166 15.1254 16.0165 15.5454 15.5958C15.9654 15.1752 16.365 14.9148 16.9265 14.6975C17.3492 14.5326 17.9856 14.3375 19.1563 14.2843C20.4219 14.2261 20.8021 14.2144 24.0072 14.2144C27.2123 14.2144 27.5928 14.227 28.8596 14.2843C30.0302 14.3376 30.6654 14.5341 31.0893 14.6975C31.6499 14.9148 32.0499 15.1758 32.4705 15.5958C32.891 16.0159 33.1503 16.4166 33.3686 16.9774C33.5334 17.4001 33.7284 18.0368 33.7816 19.2078C33.8399 20.4749 33.8515 20.8541 33.8515 24.0615C33.8515 27.269 33.8399 27.6482 33.7816 28.9153C33.7283 30.0863 33.5324 30.7228 33.3686 31.1457C33.1503 31.7065 32.8904 32.1066 32.4705 32.5263C32.0505 32.946 31.6499 33.2064 31.0893 33.4247C30.6667 33.5896 30.0302 33.7846 28.8596 33.8378C27.5939 33.8961 27.2137 33.9077 24.0072 33.9077C20.8007 33.9077 20.4216 33.8961 19.1563 33.8378ZM19.0569 12.1235C17.7786 12.1817 16.9052 12.3845 16.1424 12.6814C15.3524 12.988 14.6837 13.3993 14.0154 14.0667C13.3471 14.7342 12.9369 15.4042 12.6304 16.1944C12.3336 16.9579 12.1309 17.8311 12.0727 19.1097C12.0135 20.3903 12 20.7997 12 24.0614C12 27.3232 12.0135 27.7326 12.0727 29.0132C12.1309 30.2919 12.3336 31.165 12.6304 31.9285C12.9369 32.7183 13.3472 33.389 14.0154 34.0561C14.6836 34.7233 15.3524 35.134 16.1424 35.4415C16.9066 35.7384 17.7786 35.9411 19.0569 35.9994C20.3378 36.0576 20.7464 36.0721 24.0072 36.0721C27.268 36.0721 27.6773 36.0586 28.9575 35.9994C30.2359 35.9411 31.1087 35.7384 31.872 35.4415C32.6615 35.134 33.3307 34.7236 33.999 34.0561C34.6673 33.3887 35.0766 32.7183 35.384 31.9285C35.6808 31.165 35.8844 30.2918 35.9417 29.0132C35.9999 27.7316 36.0134 27.3232 36.0134 24.0614C36.0134 20.7997 35.9999 20.3903 35.9417 19.1097C35.8835 17.831 35.6808 16.9574 35.384 16.1944C35.0766 15.4046 34.6662 14.7352 33.999 14.0667C33.3318 13.3983 32.6615 12.988 31.873 12.6814C31.1087 12.3845 30.2358 12.1808 28.9585 12.1235C27.6782 12.0653 27.2689 12.0508 24.0082 12.0508C20.7474 12.0508 20.3378 12.0643 19.0569 12.1235Z"/></symbol><symbol viewBox="0 0 48 48" id="linkedin" xmlns="http://www.w3.org/2000/svg"><path d="M18.4787 33.7264V20.7602H14.1728V33.7264H18.4787ZM16.3266 18.9902C17.8279 18.9902 18.7625 17.9945 18.7625 16.7503C18.7344 15.4776 17.8279 14.5098 16.3552 14.5098C14.8815 14.5098 13.9189 15.4776 13.9189 16.7501C13.9189 17.9944 14.8532 18.9901 16.2984 18.9901L16.3266 18.9902ZM20.8621 33.7264H25.1677V26.4863C25.1677 26.0992 25.1958 25.7112 25.3095 25.4348C25.6207 24.6602 26.3291 23.8584 27.5189 23.8584C29.0766 23.8584 29.7001 25.0473 29.7001 26.7906V33.7264H34.0056V26.292C34.0056 22.3095 31.8816 20.4562 29.0487 20.4562C26.7261 20.4562 25.7061 21.7555 25.1393 22.6405H25.168V20.7606H20.8623C20.9185 21.977 20.8621 33.7264 20.8621 33.7264Z"/></symbol><symbol viewBox="0 0 40 40" id="logo" xmlns="http://www.w3.org/2000/svg"><path fill-rule="evenodd" clip-rule="evenodd" d="M8.55273 3.59787C7.12207 4.59823 5.82837 5.78098 4.70532 7.1124C9.29462 6.68633 15.1252 7.38204 21.8944 10.7667C29.123 14.3809 34.9438 14.5031 38.9948 13.7217C38.6272 12.6088 38.1644 11.5392 37.6163 10.5224C32.979 11.0115 27.034 10.3641 20.1056 6.89998C15.706 4.70018 11.8278 3.79401 8.55273 3.59787ZM34.9074 6.66665C31.2453 2.575 25.9234 0 20 0C18.2605 0 16.5727 0.222107 14.9637 0.63948C17.1429 1.23409 19.4579 2.10399 21.8944 3.32227C26.967 5.85853 31.3464 6.67516 34.9074 6.66665ZM39.8609 17.6281C34.9669 18.5945 28.2088 18.396 20.1056 14.3444C12.53 10.5566 6.50043 10.6043 2.4339 11.508C2.224 11.5546 2.01904 11.6036 1.81903 11.6546C1.28662 12.8125 0.861634 14.0301 0.556702 15.2945C0.882386 15.2075 1.21893 15.1248 1.56616 15.0476C6.49957 13.9513 13.4701 13.9989 21.8944 18.2111C29.4701 21.9989 35.4996 21.9512 39.5662 21.0475C39.7055 21.0166 39.8428 20.9846 39.9778 20.9516C39.9926 20.6363 40 20.319 40 20C40 19.1975 39.9528 18.406 39.8609 17.6281ZM39.3248 25.1723C34.4783 26.0196 27.917 25.6944 20.1056 21.7888C12.53 18.001 6.50043 18.0487 2.4339 18.9524C1.53125 19.1529 0.719239 19.3972 0.00293 19.6551C0.000977 19.7698 0 19.8848 0 20C0 31.0457 8.95429 40 20 40C29.2571 40 37.0453 33.7109 39.3248 25.1723Z"/></symbol><symbol viewBox="0 0 80 80" id="logo-white" xmlns="http://www.w3.org/2000/svg"><path fill-rule="evenodd" clip-rule="evenodd" d="M17.1055 7.19574C14.2441 9.19646 11.6567 11.562 9.41065 14.2248C18.5893 13.3727 30.2503 14.7641 43.7887 21.5334C58.246 28.7618 69.8876 29.0062 77.9896 27.4434C77.2544 25.2176 76.3288 23.0784 75.2326 21.0448C65.958 22.023 54.068 20.7282 40.2112 13.8C31.4119 9.40036 23.6555 7.58802 17.1055 7.19574ZM69.8148 13.3333C62.4906 5.14999 51.8468 0 39.9999 0C36.5209 0 33.1453 0.444214 29.9273 1.27896C34.2857 2.46817 38.9157 4.20797 43.7887 6.64454C53.934 11.7171 62.6928 13.3503 69.8148 13.3333ZM79.7218 35.2562C69.9338 37.189 56.4176 36.792 40.2112 28.6888C25.0599 21.1132 13.0009 21.2086 4.8678 23.016C4.448 23.1092 4.03808 23.2072 3.63806 23.3092C2.57324 25.625 1.72327 28.0602 1.1134 30.589C1.76477 30.415 2.43786 30.2496 3.13232 30.0952C12.9991 27.9026 26.9401 27.9978 43.7887 36.4222C58.9402 43.9978 70.9992 43.9024 79.1324 42.095C79.411 42.0332 79.6856 41.9692 79.9556 41.9032C79.9852 41.2726 80 40.638 80 40C80 38.395 79.9056 36.812 79.7218 35.2562ZM78.6496 50.3446C68.9566 52.0392 55.834 51.3888 40.2112 43.5776C25.0599 36.002 13.0009 36.0974 4.8678 37.9048C3.0625 38.3058 1.43848 38.7944 0.00586001 39.3102C0.001954 39.5396 0 39.7696 0 40C0 62.0914 17.9086 80 39.9999 80C58.5142 80 74.0906 67.4218 78.6496 50.3446Z"/></symbol><symbol viewBox="0 0 30 30" id="mail-icon" xmlns="http://www.w3.org/2000/svg"><desc>Created with Pixso.</desc><defs><clipPath id="iclip1219_494"><rect id="iEnvelopeSimple" width="30.000000" height="30.000000" fill-opacity="0"/></clipPath></defs><g clip-path="url(#iclip1219_494)"><path id="iVector" d="M26.25 6.56L26.25 22.5C26.25 22.74 26.15 22.98 25.97 23.16C25.79 23.33 25.56 23.43 25.31 23.43L4.68 23.43C4.43 23.43 4.2 23.33 4.02 23.16C3.84 22.98 3.75 22.74 3.75 22.5L3.75 6.56L26.25 6.56Z" stroke-opacity="1.000000" stroke-width="2.000000" stroke-linejoin="round"/><path id="iVector" d="M26.25 6.56L15 16.87L3.75 6.56" stroke-opacity="1.000000" stroke-width="2.000000" stroke-linejoin="round" stroke-linecap="round"/></g></symbol><symbol viewBox="0 0 35 34" id="phone" xmlns="http://www.w3.org/2000/svg"><path d="M9.87833 15.2858C11.9183 19.295 15.205 22.5675 19.2142 24.6217L22.3308 21.505C22.7133 21.1225 23.28 20.995 23.7758 21.165C25.3625 21.6892 27.0767 21.9725 28.8333 21.9725C29.6125 21.9725 30.25 22.61 30.25 23.3892V28.3333C30.25 29.1125 29.6125 29.75 28.8333 29.75C15.5308 29.75 4.75 18.9692 4.75 5.66667C4.75 4.8875 5.3875 4.25 6.16667 4.25H11.125C11.9042 4.25 12.5417 4.8875 12.5417 5.66667C12.5417 7.4375 12.825 9.1375 13.3492 10.7242C13.505 11.22 13.3917 11.7725 12.995 12.1692L9.87833 15.2858Z"/></symbol><symbol viewBox="0 0 22 22" id="search" xmlns="http://www.w3.org/2000/svg"><path d="M9.625 16.5C13.422 16.5 16.5 13.422 16.5 9.625C16.5 5.82804 13.422 2.75 9.625 2.75C5.82804 2.75 2.75 5.82804 2.75 9.625C2.75 13.422 5.82804 16.5 9.625 16.5Z" stroke-linecap="round" stroke-linejoin="round"/><path d="M14.4863 14.4866L19.2498 19.2501" stroke-linecap="round" stroke-linejoin="round"/></symbol><symbol viewBox="0 0 20 19" id="star" xmlns="http://www.w3.org/2000/svg"><path d="M9.21545 0.927052C9.5148 0.00574112 10.8182 0.00573993 11.1176 0.927051L12.6362 5.60081C12.77 6.01284 13.154 6.2918 13.5872 6.2918H18.5015C19.4702 6.2918 19.873 7.53141 19.0893 8.10081L15.1135 10.9894C14.7631 11.244 14.6164 11.6954 14.7503 12.1074L16.2689 16.7812C16.5682 17.7025 15.5137 18.4686 14.73 17.8992L10.7543 15.0106C10.4038 14.756 9.92921 14.756 9.57872 15.0106L5.60298 17.8992C4.81927 18.4686 3.76479 17.7025 4.06414 16.7812L5.58273 12.1074C5.71661 11.6954 5.56995 11.244 5.21946 10.9894L1.24373 8.10081C0.460011 7.53141 0.862787 6.2918 1.83151 6.2918H6.74579C7.17902 6.2918 7.56298 6.01284 7.69685 5.60081L9.21545 0.927052Z"/></symbol><symbol viewBox="0 0 20 19" id="star-off" xmlns="http://www.w3.org/2000/svg"><path d="M9.21545 0.927052C9.5148 0.00574112 10.8182 0.00573993 11.1176 0.927051L12.6362 5.60081C12.77 6.01284 13.154 6.2918 13.5872 6.2918H18.5015C19.4702 6.2918 19.873 7.53141 19.0893 8.10081L15.1135 10.9894C14.7631 11.244 14.6164 11.6954 14.7503 12.1074L16.2689 16.7812C16.5682 17.7025 15.5137 18.4686 14.73 17.8992L10.7543 15.0106C10.4038 14.756 9.92921 14.756 9.57872 15.0106L5.60298 17.8992C4.81927 18.4686 3.76479 17.7025 4.06414 16.7812L5.58273 12.1074C5.71661 11.6954 5.56995 11.244 5.21946 10.9894L1.24373 8.10081C0.460011 7.53141 0.862787 6.2918 1.83151 6.2918H6.74579C7.17902 6.2918 7.56298 6.01284 7.69685 5.60081L9.21545 0.927052Z" fill-opacity="0.24"/></symbol><symbol viewBox="0 0 48 48" id="twitter" xmlns="http://www.w3.org/2000/svg"><path d="M35.9131 16.4008C35.1206 16.7422 34.2874 16.9799 33.4341 17.1081C33.833 17.0396 34.42 16.3209 34.6537 16.03C35.0086 15.5912 35.2792 15.0903 35.4515 14.5527C35.4515 14.5128 35.4914 14.4557 35.4515 14.4272C35.4314 14.4162 35.4089 14.4105 35.386 14.4105C35.3631 14.4105 35.3405 14.4162 35.3204 14.4272C34.3939 14.9294 33.4078 15.3127 32.3855 15.568C32.3499 15.5789 32.3119 15.5799 32.2758 15.5708C32.2396 15.5618 32.2066 15.5431 32.1803 15.5167C32.1008 15.4218 32.0151 15.3323 31.9239 15.2486C31.5069 14.8746 31.0338 14.5686 30.5219 14.3416C29.831 14.0579 29.0846 13.935 28.3392 13.9823C27.616 14.028 26.9099 14.2222 26.2648 14.5527C25.6296 14.9012 25.0713 15.3746 24.6235 15.9445C24.1525 16.531 23.8124 17.2118 23.6262 17.9409C23.4727 18.6344 23.4552 19.3512 23.5749 20.0513C23.5749 20.1711 23.5749 20.1882 23.4723 20.1711C19.409 19.5722 16.0751 18.1291 13.351 15.0318C13.2313 14.8949 13.1687 14.8949 13.0718 15.0318C11.8864 16.8343 12.462 19.6863 13.9437 21.0952C14.1432 21.2834 14.3483 21.4659 14.5649 21.6371C13.8855 21.5888 13.2228 21.4045 12.6159 21.0952C12.5019 21.021 12.4392 21.061 12.4335 21.1979C12.4173 21.3876 12.4173 21.5785 12.4335 21.7683C12.5524 22.6778 12.9105 23.5394 13.4713 24.265C14.032 24.9906 14.7752 25.5541 15.6249 25.898C15.832 25.9868 16.0479 26.0537 16.2689 26.0976C15.64 26.2215 14.9949 26.2408 14.3597 26.1546C14.223 26.1261 14.1717 26.2003 14.223 26.3315C15.0607 28.6131 16.8787 29.3089 18.2122 29.6968C18.3946 29.7253 18.577 29.7253 18.7821 29.771C18.7821 29.771 18.7821 29.771 18.7479 29.8052C18.3547 30.5239 16.7647 31.0087 16.0352 31.2597C14.7038 31.7384 13.2842 31.9214 11.875 31.7959C11.6527 31.7617 11.6015 31.7674 11.5445 31.7959C11.4875 31.8244 11.5445 31.8872 11.6071 31.9442C11.8921 32.1324 12.177 32.2979 12.4734 32.4576C13.3556 32.9392 14.2883 33.3218 15.2545 33.5984C20.2581 34.9787 25.8887 33.9634 29.6443 30.2273C32.5964 27.2954 33.6336 23.2513 33.6336 19.2014C33.6336 19.0474 33.8216 18.9562 33.9299 18.8763C34.6768 18.2939 35.3352 17.606 35.8846 16.8343C35.9798 16.7192 36.0286 16.5728 36.0214 16.4236C36.0214 16.338 36.0214 16.3551 35.9131 16.4008Z"/></symbol><symbol viewBox="0 0 48 48" id="youtube" xmlns="http://www.w3.org/2000/svg"><desc>Created with Pixso.</desc><defs><clipPath id="oclip132_421"><rect id="oYoutube" width="48.000000" height="48.000000" fill-opacity="0"/></clipPath></defs><rect id="oYoutube" width="48.000000" height="48.000000" fill-opacity="0"/><g clip-path="url(#oclip132_421)"><path id="oVector" d="M37.35 17.39C37.03 16.21 36.1 15.29 34.93 14.97C32.79 14.39 24.24 14.39 24.24 14.39C24.24 14.39 15.68 14.39 13.55 14.97C12.37 15.28 11.44 16.21 11.13 17.39C10.56 19.53 10.56 23.99 10.56 23.99C10.56 23.99 10.56 28.46 11.13 30.6C11.44 31.78 12.37 32.7 13.55 33.02C15.68 33.59 24.24 33.59 24.24 33.59C24.24 33.59 32.79 33.59 34.93 33.02C36.1 32.71 37.03 31.78 37.35 30.6C37.92 28.46 37.92 23.99 37.92 23.99C37.92 23.99 37.92 19.53 37.35 17.39Z" fill-opacity="1.000000" fill-rule="nonzero"/><path id="oVector" d="M21.5 28.11L28.61 24L21.5 19.88L21.5 28.11Z" fill-opacity="1.000000" fill-rule="nonzero"/></g></symbol></svg>