<?xml version="1.0" encoding="utf-8"?><svg viewBox="0 0 80 80" xmlns="http://www.w3.org/2000/svg" xmlns:xlink="http://www.w3.org/1999/xlink"><style>:root>svg{display:none}:root>svg:target{display:block}</style><svg fill="none" viewBox="0 0 80 80" id="arrow-circle-left" xmlns="http://www.w3.org/2000/svg"><path d="M40 70c16.569 0 30-13.431 30-30 0-16.569-13.431-30-30-30-16.569 0-30 13.431-30 30 0 16.569 13.431 30 30 30ZM27.5 40h25" stroke="#fff" stroke-width="2" stroke-linecap="round" stroke-linejoin="round"/><path d="m37.5 30-10 10 10 10" stroke="#fff" stroke-width="2" stroke-linecap="round" stroke-linejoin="round"/></svg><svg fill="none" viewBox="0 0 80 80" id="arrow-circle-right" xmlns="http://www.w3.org/2000/svg"><path d="M40 70c16.569 0 30-13.431 30-30 0-16.569-13.431-30-30-30-16.569 0-30 13.431-30 30 0 16.569 13.431 30 30 30ZM27.5 40h25" stroke="#fff" stroke-width="2" stroke-linecap="round" stroke-linejoin="round"/><path d="m42.5 30 10 10-10 10" stroke="#fff" stroke-width="2" stroke-linecap="round" stroke-linejoin="round"/></svg><svg fill="none" viewBox="0 0 34 34" id="arrow-right" xmlns="http://www.w3.org/2000/svg"><g clip-path="url(#ca)" stroke="#fff" stroke-width="2" stroke-linecap="round" stroke-linejoin="round"><path d="M5.313 17h23.375M19.125 7.438 28.688 17l-9.563 9.563"/></g><defs><clipPath id="ca"><path fill="#fff" d="M0 0h34v34H0z"/></clipPath></defs></svg><svg fill="none" viewBox="0 0 48 48" id="facebook" xmlns="http://www.w3.org/2000/svg"><path d="m29.873 25.562.684-4.345h-4.213v-2.824c0-1.189.588-2.35 2.469-2.35h1.942v-3.7a23.538 23.538 0 0 0-3.42-.292c-3.467 0-5.73 2.085-5.73 5.853v3.313H17.76v4.345h3.843v10.51h4.74v-10.51h3.529Z" fill="#fff"/></svg><svg fill="none" viewBox="0 0 48 48" id="instagram" xmlns="http://www.w3.org/2000/svg"><path d="M20.005 24.061a4.003 4.003 0 1 1 4.002 4.004 4.003 4.003 0 0 1-4.002-4.004Zm-2.163 0a6.166 6.166 0 1 0 12.33 0 6.166 6.166 0 1 0-12.33 0Zm11.134-6.411a1.442 1.442 0 1 0 2.884 0 1.442 1.442 0 0 0-2.884 0Zm-9.82 16.188c-1.17-.053-1.807-.248-2.23-.413a3.731 3.731 0 0 1-1.38-.899c-.421-.42-.681-.82-.899-1.38-.165-.423-.36-1.06-.413-2.23-.058-1.267-.07-1.647-.07-4.855 0-3.207.013-3.586.07-4.853.053-1.171.25-1.807.413-2.23.219-.561.478-.962.898-1.382.42-.42.82-.681 1.382-.899.422-.164 1.059-.36 2.23-.413 1.265-.058 1.645-.07 4.85-.07 3.205 0 3.586.013 4.853.07 1.17.054 1.805.25 2.23.413.56.218.96.479 1.38.899.421.42.68.82.899 1.381.164.423.36 1.06.413 2.23.058 1.268.07 1.647.07 4.854 0 3.208-.012 3.587-.07 4.854-.054 1.171-.25 1.808-.413 2.23-.219.561-.479.962-.898 1.381-.42.42-.821.68-1.382.899-.422.165-1.059.36-2.23.413-1.265.058-1.645.07-4.852.07-3.206 0-3.585-.012-4.85-.07Zm-.1-21.715c-1.277.059-2.15.261-2.914.558a5.889 5.889 0 0 0-2.127 1.386 5.87 5.87 0 0 0-1.385 2.127c-.296.764-.5 1.637-.557 2.916-.06 1.28-.073 1.69-.073 4.951 0 3.262.014 3.672.073 4.952.058 1.279.26 2.152.557 2.915a5.87 5.87 0 0 0 1.385 2.128 5.903 5.903 0 0 0 2.127 1.386c.765.296 1.637.5 2.915.557 1.28.059 1.69.073 4.95.073 3.261 0 3.67-.013 4.95-.073 1.279-.058 2.152-.26 2.915-.558a5.904 5.904 0 0 0 2.127-1.385 5.883 5.883 0 0 0 1.385-2.127c.297-.764.5-1.637.558-2.916.058-1.281.071-1.69.071-4.952 0-3.261-.013-3.67-.071-4.951-.059-1.279-.261-2.153-.558-2.916a5.907 5.907 0 0 0-1.385-2.127 5.876 5.876 0 0 0-2.126-1.386c-.764-.296-1.637-.5-2.915-.557-1.28-.059-1.69-.073-4.95-.073-3.26 0-3.67.013-4.951.072Z" fill="#fff"/><path d="M20.005 24.061a4.003 4.003 0 1 1 4.002 4.004 4.003 4.003 0 0 1-4.002-4.004Zm-2.163 0a6.166 6.166 0 1 0 12.33 0 6.166 6.166 0 1 0-12.33 0Zm11.134-6.411a1.442 1.442 0 1 0 2.884 0 1.442 1.442 0 0 0-2.884 0Zm-9.82 16.188c-1.17-.053-1.807-.248-2.23-.413a3.731 3.731 0 0 1-1.38-.899c-.421-.42-.681-.82-.899-1.38-.165-.423-.36-1.06-.413-2.23-.058-1.267-.07-1.647-.07-4.855 0-3.207.013-3.586.07-4.853.053-1.171.25-1.807.413-2.23.219-.561.478-.962.898-1.382.42-.42.82-.681 1.382-.899.422-.164 1.059-.36 2.23-.413 1.265-.058 1.645-.07 4.85-.07 3.205 0 3.586.013 4.853.07 1.17.054 1.805.25 2.23.413.56.218.96.479 1.38.899.421.42.68.82.899 1.381.164.423.36 1.06.413 2.23.058 1.268.07 1.647.07 4.854 0 3.208-.012 3.587-.07 4.854-.054 1.171-.25 1.808-.413 2.23-.219.561-.479.962-.898 1.381-.42.42-.821.68-1.382.899-.422.165-1.059.36-2.23.413-1.265.058-1.645.07-4.852.07-3.206 0-3.585-.012-4.85-.07Zm-.1-21.715c-1.277.059-2.15.261-2.914.558a5.889 5.889 0 0 0-2.127 1.386 5.87 5.87 0 0 0-1.385 2.127c-.296.764-.5 1.637-.557 2.916-.06 1.28-.073 1.69-.073 4.951 0 3.262.014 3.672.073 4.952.058 1.279.26 2.152.557 2.915a5.87 5.87 0 0 0 1.385 2.128 5.903 5.903 0 0 0 2.127 1.386c.765.296 1.637.5 2.915.557 1.28.059 1.69.073 4.95.073 3.261 0 3.67-.013 4.95-.073 1.279-.058 2.152-.26 2.915-.558a5.904 5.904 0 0 0 2.127-1.385 5.883 5.883 0 0 0 1.385-2.127c.297-.764.5-1.637.558-2.916.058-1.281.071-1.69.071-4.952 0-3.261-.013-3.67-.071-4.951-.059-1.279-.261-2.153-.558-2.916a5.907 5.907 0 0 0-1.385-2.127 5.876 5.876 0 0 0-2.126-1.386c-.764-.296-1.637-.5-2.915-.557-1.28-.059-1.69-.073-4.95-.073-3.26 0-3.67.013-4.951.072Z" fill="#fff"/></svg><svg fill="none" viewBox="0 0 48 48" id="linkedin" xmlns="http://www.w3.org/2000/svg"><path d="M18.479 33.726V20.76h-4.306v12.966h4.306ZM16.327 18.99c1.5 0 2.435-.995 2.435-2.24-.028-1.272-.934-2.24-2.407-2.24-1.473 0-2.436.968-2.436 2.24 0 1.244.934 2.24 2.38 2.24h.028Zm4.535 14.736h4.306v-7.24c0-.387.028-.775.142-1.051.31-.775 1.02-1.577 2.209-1.577 1.558 0 2.181 1.19 2.181 2.933v6.935h4.306v-7.434c0-3.983-2.124-5.836-4.957-5.836-2.323 0-3.343 1.3-3.91 2.184h.029v-1.88h-4.306c.057 1.217 0 12.966 0 12.966Z" fill="#fff"/></svg><svg fill="none" viewBox="0 0 40 40" id="logo" xmlns="http://www.w3.org/2000/svg"><path fill-rule="evenodd" clip-rule="evenodd" d="M8.553 3.598c-1.43 1-2.725 2.183-3.848 3.514 4.59-.426 10.42.27 17.19 3.655 7.228 3.614 13.049 3.736 17.1 2.955a19.888 19.888 0 0 0-1.379-3.2c-4.637.49-10.582-.158-17.51-3.622-4.4-2.2-8.278-3.106-11.553-3.302Zm26.354 3.069A19.95 19.95 0 0 0 20 0c-1.74 0-3.427.222-5.036.64 2.179.594 4.494 1.464 6.93 2.682 5.073 2.537 9.452 3.353 13.013 3.345Zm4.954 10.961c-4.894.966-11.652.768-19.755-3.284-7.576-3.787-13.606-3.74-17.672-2.836-.21.047-.415.096-.615.147a19.85 19.85 0 0 0-1.262 3.64c.325-.088.662-.17 1.01-.247C6.5 13.95 13.47 13.998 21.893 18.21 29.47 22 35.5 21.951 39.566 21.048c.14-.031.277-.063.412-.096a20.296 20.296 0 0 0-.117-3.324Zm-.536 7.544c-4.847.848-11.408.522-19.22-3.383C12.53 18 6.5 18.049 2.435 18.952c-.903.2-1.715.445-2.431.703L0 20c0 11.046 8.954 20 20 20 9.257 0 17.045-6.29 19.325-14.828Z" fill="#012E4D"/></svg><svg fill="none" viewBox="0 0 80 80" id="logo-white" xmlns="http://www.w3.org/2000/svg"><path fill-rule="evenodd" clip-rule="evenodd" d="M17.105 7.196a40.227 40.227 0 0 0-7.694 7.029c9.178-.852 20.84.54 34.378 7.308 14.457 7.229 26.099 7.473 34.2 5.91a39.775 39.775 0 0 0-2.756-6.398c-9.275.978-21.165-.317-35.022-7.245-8.8-4.4-16.555-6.212-23.105-6.604Zm52.71 6.137C62.49 5.15 51.847 0 40 0a40.07 40.07 0 0 0-10.073 1.279c4.359 1.19 8.989 2.929 13.862 5.366 10.145 5.072 18.904 6.705 26.026 6.688Zm9.907 21.923c-9.788 1.933-23.304 1.536-39.51-6.567C25.06 21.113 13 21.209 4.867 23.016c-.42.093-.83.191-1.23.293a39.702 39.702 0 0 0-2.525 7.28c.652-.174 1.325-.34 2.02-.494 9.866-2.192 23.807-2.097 40.656 6.327 15.151 7.576 27.21 7.48 35.343 5.673.279-.062.554-.126.824-.192a40.592 40.592 0 0 0-.234-6.647ZM78.65 50.345c-9.693 1.694-22.816 1.044-38.439-6.767-15.151-7.576-27.21-7.48-35.343-5.673-1.806.4-3.43.89-4.862 1.405-.004.23-.006.46-.006.69 0 22.091 17.909 40 40 40 18.514 0 34.09-12.578 38.65-29.655Z" fill="#fff"/></svg><svg fill="none" viewBox="0 0 30 30" id="mail-icon" xmlns="http://www.w3.org/2000/svg"><defs><clipPath id="ia"><path fill="#fff" fill-opacity="0" d="M0 0h30v30H0z"/></clipPath></defs><g clip-path="url(#ia)" stroke="#FFF" stroke-width="2" stroke-linejoin="round"><path d="M26.25 6.56V22.5a.941.941 0 0 1-.94.93H4.68c-.25 0-.48-.1-.66-.27a.93.93 0 0 1-.27-.66V6.56h22.5Z"/><path d="M26.25 6.56 15 16.87 3.75 6.56" stroke-linecap="round"/></g></svg><svg fill="none" viewBox="0 0 35 34" id="phone" xmlns="http://www.w3.org/2000/svg"><path d="M9.878 15.286a21.46 21.46 0 0 0 9.336 9.336l3.117-3.117c.382-.383.949-.51 1.445-.34 1.587.524 3.3.808 5.057.808.78 0 1.417.637 1.417 1.416v4.944a1.42 1.42 0 0 1-1.417 1.417C15.531 29.75 4.75 18.97 4.75 5.667c0-.78.638-1.417 1.417-1.417h4.958c.78 0 1.417.638 1.417 1.417 0 1.77.283 3.47.807 5.057a1.422 1.422 0 0 1-.354 1.445l-3.117 3.117Z" fill="#fff"/></svg><svg fill="none" viewBox="0 0 22 22" id="search" xmlns="http://www.w3.org/2000/svg"><path d="M9.625 16.5a6.875 6.875 0 1 0 0-13.75 6.875 6.875 0 0 0 0 13.75ZM14.486 14.487l4.764 4.763" stroke="#0F1922" stroke-linecap="round" stroke-linejoin="round"/></svg><svg fill="none" viewBox="0 0 20 19" id="star" xmlns="http://www.w3.org/2000/svg"><path d="M9.215.927c.3-.921 1.603-.921 1.903 0l1.518 4.674a1 1 0 0 0 .951.69h4.915c.968 0 1.371 1.24.587 1.81l-3.975 2.888a1 1 0 0 0-.364 1.118l1.519 4.674c.3.922-.755 1.688-1.539 1.118l-3.976-2.888a1 1 0 0 0-1.175 0l-3.976 2.888c-.784.57-1.838-.197-1.539-1.118l1.519-4.674a1 1 0 0 0-.364-1.118L1.244 8.101c-.784-.57-.381-1.81.588-1.81h4.914a1 1 0 0 0 .95-.69L9.217.927Z" fill="#fff"/></svg><svg fill="none" viewBox="0 0 20 19" id="star-off" xmlns="http://www.w3.org/2000/svg"><path d="M9.215.927c.3-.921 1.603-.921 1.903 0l1.518 4.674a1 1 0 0 0 .951.69h4.915c.968 0 1.371 1.24.587 1.81l-3.975 2.888a1 1 0 0 0-.364 1.118l1.519 4.674c.3.922-.755 1.688-1.539 1.118l-3.976-2.888a1 1 0 0 0-1.175 0l-3.976 2.888c-.784.57-1.838-.197-1.539-1.118l1.519-4.674a1 1 0 0 0-.364-1.118L1.244 8.101c-.784-.57-.381-1.81.588-1.81h4.914a1 1 0 0 0 .95-.69L9.217.927Z" fill="#fff" fill-opacity=".24"/></svg><svg fill="none" viewBox="0 0 48 48" id="twitter" xmlns="http://www.w3.org/2000/svg"><path d="M35.913 16.4c-.792.342-1.626.58-2.479.708.399-.068.986-.787 1.22-1.078.355-.439.625-.94.797-1.477 0-.04.04-.097 0-.126a.136.136 0 0 0-.13 0 12.53 12.53 0 0 1-2.935 1.141.204.204 0 0 1-.206-.051 2.835 2.835 0 0 0-.256-.268 5.345 5.345 0 0 0-1.402-.907 4.925 4.925 0 0 0-2.183-.36 5.28 5.28 0 0 0-2.074.57 5.376 5.376 0 0 0-1.642 1.393 5.272 5.272 0 0 0-.997 1.996 5.487 5.487 0 0 0-.051 2.11c0 .12 0 .137-.103.12-4.063-.599-7.397-2.042-10.121-5.14-.12-.136-.182-.136-.28 0-1.185 1.803-.609 4.655.873 6.064.2.188.404.37.62.542a5.087 5.087 0 0 1-1.948-.542c-.114-.074-.177-.034-.182.103-.017.19-.017.38 0 .57a5.18 5.18 0 0 0 3.19 4.13c.208.089.424.156.645.2a5.825 5.825 0 0 1-1.91.057c-.136-.029-.187.045-.136.176.838 2.282 2.656 2.978 3.99 3.366.182.028.364.028.57.074l-.035.034c-.393.719-1.983 1.204-2.713 1.455a9.742 9.742 0 0 1-4.16.536c-.222-.034-.274-.029-.33 0-.057.028 0 .091.062.148a13.637 13.637 0 0 0 3.647 1.654c5.004 1.38 10.635.365 14.39-3.37 2.952-2.933 3.99-6.977 3.99-11.027 0-.154.188-.245.296-.325a9.788 9.788 0 0 0 1.955-2.042.599.599 0 0 0 .136-.41c0-.086 0-.069-.108-.023Z" fill="#fff"/></svg><svg fill="none" viewBox="0 0 48 48" id="youtube" xmlns="http://www.w3.org/2000/svg"><defs><clipPath id="oa"><path fill="#fff" fill-opacity="0" d="M0 0h48v48H0z"/></clipPath></defs><path fill="none" d="M0 0h48v48H0z"/><g clip-path="url(#oa)"><path d="M37.35 17.39a3.456 3.456 0 0 0-2.42-2.42c-2.14-.58-10.69-.58-10.69-.58s-8.56 0-10.69.58a3.404 3.404 0 0 0-2.42 2.42c-.57 2.14-.57 6.6-.57 6.6s0 4.47.57 6.61c.31 1.18 1.24 2.1 2.42 2.42 2.13.57 10.69.57 10.69.57s8.55 0 10.69-.57c1.17-.31 2.1-1.24 2.42-2.42.57-2.14.57-6.61.57-6.61s0-4.46-.57-6.6Z" fill="#FFF"/><path d="M21.5 28.11 28.61 24l-7.11-4.12v8.23Z" fill="#000816"/></g></svg></svg>